# xmcd CD database file
#
# Track frame offsets:
#	150
#	10659
#	37426
#	52868
#	73275
#	92848
#	103808
#	126679
#	149737
#	170999
#	191311
#	210001
#	233272
#
# Disc length: 3407 seconds
#
# Revision: 0
# Processed by: cddbd v1.4PL0 Copyright (c) Steve Scherf et al.
# Submitted via: CDex 1.51
#
DISCID=be0d4d0d
DTITLE=Rama Dance - Sâga
DYEAR=2000
DGENRE=New Age
TTITLE0=Intro
TTITLE1=Daugaviòa
TTITLE2=RamaDance
TTITLE3=Melna Dziesma
TTITLE4=Tâda Zeme
TTITLE5=Viens
TTITLE6=Mio Deo
TTITLE7=Padzîvoti
TTITLE8=Narasinga
TTITLE9=Tulasî
TTITLE10=Jçziò
TTITLE11=Bailes
TTITLE12=Râmava
EXTD=YEAR: 2000
EXTT0=
EXTT1=
EXTT2=
EXTT3=
EXTT4=
EXTT5=
EXTT6=
EXTT7=
EXTT8=
EXTT9=
EXTT10=
EXTT11=
EXTT12=
PLAYORDER=
